<?xml version="1.0" standalone="no"?>
<!DOCTYPE svg PUBLIC "-//W3C//DTD SVG 20010904//EN"
 "http://www.w3.org/TR/2001/REC-SVG-20010904/DTD/svg10.dtd">
<svg version="1.0" xmlns="http://www.w3.org/2000/svg"
 width="750.000000pt" height="705.000000pt" viewBox="0 0 750.000000 705.000000"
 preserveAspectRatio="xMidYMid meet">

<g transform="translate(0.000000,705.000000) scale(0.100000,-0.100000)"
fill="#000000" stroke="none">
<path d="M0 3525 l0 -3525 3750 0 3750 0 0 3525 0 3525 -3750 0 -3750 0 0
-3525z m5228 3438 c2 -13 -1 -23 -7 -23 -8 0 -11 -315 -11 -1065 l0 -1065 29
0 c17 0 33 5 36 10 4 7 358 10 1031 10 l1024 0 0 -29 c0 -17 -4 -33 -10 -36
-5 -3 -10 -24 -10 -46 l0 -39 -1050 0 -1050 0 0 -1077 0 -1078 1057 0 1058 0
3 -23 c2 -12 -1 -22 -7 -22 -6 0 -11 -21 -11 -50 l0 -50 -1050 0 -1050 0 0
-1090 0 -1090 -50 0 c-29 0 -50 -5 -50 -11 0 -6 -10 -9 -22 -7 l-23 3 0 1098
0 1097 -1267 0 -1268 0 0 -1090 0 -1090 -39 0 c-22 0 -43 -5 -46 -10 -3 -6
-19 -10 -36 -10 l-29 0 0 1064 c0 699 3 1067 10 1071 6 3 10 19 10 36 l0 29
-1020 0 c-718 0 -1020 -3 -1020 -11 0 -6 -10 -9 -22 -7 -21 3 -23 9 -26 86
l-3 82 1036 0 1035 0 0 1040 c0 687 3 1040 10 1040 6 0 10 16 10 35 l0 35
-1019 0 c-669 0 -1022 -3 -1026 -10 -3 -5 -13 -10 -21 -10 -12 0 -14 15 -12
83 l3 82 1028 3 1027 2 0 1075 0 1075 85 0 85 0 0 -29 c0 -17 -4 -33 -10 -36
-7 -4 -10 -367 -10 -1056 l0 -1049 35 0 c19 0 35 5 35 10 0 7 417 10 1230 10
l1230 0 0 1080 0 1081 83 -3 c76 -3 82 -5 85 -25z m-1461 -596 c4 -6 6 -24 5
-40 -3 -35 113 -281 128 -272 5 3 10 21 10 38 0 18 6 41 13 52 17 25 64 141
73 177 12 52 79 70 154 40 30 -11 59 -42 41 -42 -7 0 -9 -9 -5 -25 5 -19 -1
-31 -29 -57 -23 -22 -59 -84 -107 -185 l-73 -152 109 -183 c60 -101 122 -195
138 -210 25 -23 28 -31 22 -62 -11 -60 -63 -79 -159 -57 -50 12 -69 36 -63 81
4 28 -3 49 -39 110 -25 42 -45 85 -45 94 0 21 -31 76 -43 76 -13 0 -138 -272
-144 -313 -7 -48 -34 -63 -90 -51 -21 4 -45 8 -54 8 -49 2 -77 76 -40 108 10
8 51 78 91 154 40 77 86 163 101 192 l28 54 -28 51 c-16 29 -59 107 -96 175
-36 67 -75 127 -86 132 -10 6 -19 20 -19 32 0 26 37 68 60 68 9 0 20 3 24 7 4
4 19 9 34 11 15 2 28 5 30 6 6 7 53 -7 59 -17z m2483 -2197 c96 5 119 2 150
-20 16 -12 29 -24 28 -28 -1 -4 14 -32 34 -62 56 -83 79 -179 85 -346 5 -121
2 -152 -16 -225 -25 -100 -91 -240 -128 -268 -31 -25 -125 -28 -185 -7 -21 8
-35 10 -32 5 14 -24 -20 -4 -59 34 -88 84 -137 252 -139 472 -1 130 15 213 59
320 43 103 81 141 128 128 11 -4 45 -5 75 -3z"/>
<path d="M2530 3602 l0 -1077 199 0 199 0 5 200 c5 232 27 340 97 482 121 245
379 375 775 390 232 9 384 -16 534 -89 110 -53 209 -150 263 -258 67 -133 110
-341 124 -600 l7 -125 161 3 c88 2 162 5 163 6 1 1 4 484 5 1074 l3 1072
-1267 0 -1268 0 0 -1078z m2170 -157 c32 -17 73 -61 94 -102 20 -40 21 -125 2
-162 -16 -29 -80 -91 -96 -91 -4 0 -18 30 -30 66 -16 48 -19 69 -11 77 37 37
-13 134 -64 125 -19 -4 -32 4 -59 33 -37 42 -36 45 28 65 44 14 95 9 136 -11z
m-1594 -39 c21 -11 21 -12 -21 -63 -31 -37 -46 -49 -56 -42 -28 17 -67 10 -88
-17 -29 -37 -27 -79 5 -109 24 -22 25 -26 13 -67 -7 -24 -15 -46 -19 -51 -11
-13 -91 53 -106 88 -44 106 20 236 133 272 41 13 104 8 139 -11z"/>
<path d="M4058 3445 c-142 -52 -229 -197 -199 -331 40 -179 237 -271 414 -195
127 55 194 178 167 308 -22 106 -73 173 -160 212 -53 24 -164 27 -222 6z m197
-22 c97 -33 165 -134 165 -246 0 -109 -46 -182 -144 -228 -185 -88 -396 26
-396 214 0 72 18 122 63 173 80 91 202 125 312 87z"/>
<path d="M4099 3354 c-36 -38 -34 -107 4 -140 39 -34 79 -31 111 7 75 89 -36
217 -115 133z m71 -114 c0 -11 -4 -20 -9 -20 -14 0 -23 18 -16 30 10 17 25 11
25 -10z"/>
<path d="M3350 3414 c-172 -62 -244 -236 -164 -401 27 -56 63 -92 128 -126 59
-31 181 -30 253 2 64 28 133 100 158 164 35 92 2 241 -67 303 -71 66 -213 92
-308 58z m237 -39 c89 -44 144 -156 128 -263 -21 -141 -139 -229 -299 -220
-140 7 -227 94 -234 234 -5 88 9 134 56 186 88 97 227 122 349 63z"/>
<path d="M3419 3321 c-38 -38 -40 -97 -6 -137 66 -77 181 22 133 114 -30 59
-82 68 -127 23z m71 -121 c0 -11 -7 -20 -15 -20 -8 0 -15 9 -15 20 0 11 7 20
15 20 8 0 15 -9 15 -20z"/>
<path d="M3760 2973 c-19 -10 -42 -32 -50 -50 -8 -18 -23 -35 -32 -38 -9 -3
-31 -22 -47 -41 -41 -46 -43 -108 -6 -148 13 -14 30 -26 37 -26 9 0 13 -15 13
-43 1 -57 22 -107 47 -107 17 0 18 2 4 15 -18 18 -29 70 -24 109 2 22 11 31
43 42 22 7 45 14 52 14 16 0 5 -140 -13 -161 -13 -14 -9 -16 31 -16 41 0 44 2
30 17 -10 11 -15 37 -15 81 0 87 6 94 58 73 l42 -16 0 -69 c0 -54 -4 -70 -17
-79 -16 -9 -15 -10 7 -8 24 3 25 7 28 74 3 69 3 71 27 66 35 -6 95 55 95 97 0
34 -46 93 -91 116 -18 10 -29 24 -31 41 -7 60 -118 93 -188 57z m73 -160 c-13
-2 -33 -2 -45 0 -13 2 -3 4 22 4 25 0 35 -2 23 -4z m-168 -111 c-3 -3 -11 0
-18 7 -9 10 -8 11 6 5 10 -3 15 -9 12 -12z"/>
<path d="M6243 4050 c-49 -20 -99 -231 -90 -385 11 -193 84 -385 132 -345 9 7
14 15 11 17 -2 3 9 32 25 67 16 34 39 100 50 146 20 79 21 94 11 200 -7 63
-19 140 -28 170 -10 30 -17 65 -16 76 3 39 -53 70 -95 54z"/>
</g>
</svg>
